<svg width="170" height="40" viewBox="0 0 170 40" fill="none" xmlns="http://www.w3.org/2000/svg">
<path d="M160.269 25.5586C161.225 25.5586 161.751 25.973 161.751 26.7217C161.751 27.2391 161.48 27.669 161.026 27.8682L161.113 28.0039C161.432 28.4897 161.679 28.8723 162.134 29.2705C162.269 29.3899 162.477 29.4846 162.7 29.5244L162.787 29.541V30.043L162.453 30.0586C161.991 30.0586 161.616 29.9308 161.321 29.668C160.899 29.3016 160.548 28.6884 160.293 28.1787H159.727V29.4375L159.878 29.6924L159.886 29.708V29.9072H158.754V29.708L158.905 29.4531V26.1719L158.754 25.7979V25.5586H160.269ZM156.036 22.4053C157.168 22.4053 158.093 23.3605 158.093 24.5391C158.093 25.4948 157.503 26.3073 156.626 26.5781C156.881 27.0321 157.161 27.3904 157.384 27.5576C157.535 27.669 157.814 27.7728 158.068 27.8047L158.164 27.8203V28.3301H158.061L157.773 28.3457C157.335 28.3456 156.976 28.2351 156.634 27.9883C156.259 27.7175 155.957 27.2627 155.726 26.6494C154.721 26.4981 153.972 25.5903 153.972 24.5391H153.979C153.98 23.3207 154.904 22.4054 156.036 22.4053ZM160.102 26.2275C159.91 26.2275 159.806 26.2281 159.727 26.252V27.4619H160.54C160.787 27.2947 160.883 27.1271 160.883 26.8564C160.883 26.3392 160.46 26.2276 160.102 26.2275ZM155.486 23.2168L155.479 23.2256C154.889 23.4804 154.642 24.2849 154.937 25.0176C155.096 25.4155 155.391 25.7336 155.741 25.877C156.012 25.9805 156.291 25.9804 156.538 25.877C157.136 25.6221 157.384 24.8177 157.089 24.085C156.937 23.6789 156.642 23.3689 156.291 23.2256L155.877 23.1377L155.486 23.2168ZM153.223 19.7607C154.139 19.7608 154.705 20.2545 154.705 21.0508L154.713 21.0586C154.713 21.8869 154.131 22.2455 153.788 22.3809C153.573 22.4604 153.214 22.5244 152.951 22.5244H152.84V21.9912H152.936C153.151 21.9673 153.342 21.9109 153.493 21.8154C153.708 21.688 153.845 21.4413 153.845 21.1865C153.845 20.661 153.462 20.4219 153.071 20.4219C152.864 20.4219 152.76 20.4302 152.704 20.4541L152.688 20.4854V23.6475L152.84 23.9023V24.1016H151.708V23.9023L151.859 23.6475V20.3662L151.708 19.9922V19.7607H153.223ZM149.812 17.252C150.17 17.252 150.536 17.3398 150.839 17.5068L150.896 17.5391V18.415H150.601L150.568 18.3672C150.489 18.2318 150.265 17.9365 149.795 17.9365C149.46 17.9366 149.27 18.1042 149.27 18.3906C149.27 18.6773 149.604 18.8373 149.986 19.0205L149.971 19.0684L149.994 19.0283V19.0439C150.528 19.3068 151.206 19.6574 151.206 20.4697C151.206 21.282 150.52 21.8477 149.54 21.8477C149.134 21.8477 148.783 21.8156 148.544 21.752L148.464 21.7363V20.4619H148.791L148.807 20.5488C148.815 20.6046 148.862 20.8121 149.109 20.9873C149.261 21.0988 149.453 21.1543 149.668 21.1543C149.995 21.1542 150.345 20.979 150.345 20.5889C150.345 20.2784 150.018 20.1112 149.636 19.9121C149.11 19.6334 148.512 19.3306 148.512 18.5342C148.512 17.6503 149.166 17.252 149.812 17.252ZM147.803 14.4727L147.659 14.7119L147.651 15.874H148.767L149.006 15.7148H149.205V16.7666H149.006L148.767 16.6074H147.651L147.659 17.7695L147.803 18.0088V18.208H146.679V18.0088L146.822 17.7695L146.814 16.6074H145.69L145.459 16.7666H145.26V15.7148H145.459L145.69 15.874H146.814L146.822 14.7119L146.679 14.4727V14.2734H147.803V14.4727Z" fill="#222333"/>
<path d="M154.865 10.5509C150.808 10.5509 146.918 11.2916 143.315 12.749L142.98 12.8765V21.9875C142.98 29.888 147.014 35.7735 154.658 39.015L154.865 39.1026L155.064 39.015C162.7 35.7815 166.733 29.888 166.733 21.9875V12.8765L166.407 12.7411C162.796 11.2836 158.914 10.543 154.865 10.543V10.5509ZM165.291 13.9118V22.0273C165.291 31.0109 159.639 35.4072 154.865 37.5177C150.082 35.4151 144.431 31.0189 144.431 22.0273V13.9118C147.707 12.6535 151.222 12.0163 154.873 12.0163C158.524 12.0163 162.015 12.6535 165.299 13.9118H165.291Z" fill="#222333"/>
<path d="M169.524 3.8467L169.468 3.78299L169.372 3.72724L169.085 3.77503L168.113 4.30066C167.89 4.42013 167.77 4.69091 167.802 4.99355L167.85 5.43158C167.722 5.27229 167.547 5.14487 167.324 5.0493C166.678 4.77851 165.937 5.05726 165.674 5.67847C165.411 6.29968 165.73 7.02442 166.367 7.2952C166.575 7.38281 166.814 7.41466 167.037 7.38281L167.069 7.46245C166.798 8.46594 165.929 9.15882 164.941 9.15882C163.721 9.15882 162.725 8.09958 162.725 6.79346C162.725 6.53064 162.765 6.27578 162.844 6.02889H162.892C163.099 6.33153 163.402 6.54657 163.753 6.63417C164.136 6.72974 164.534 6.67399 164.869 6.47489C165.188 6.28375 165.411 5.98907 165.491 5.63865C165.578 5.28026 165.514 4.89798 165.315 4.57941C165.116 4.26084 164.797 4.03785 164.422 3.94228C164.143 3.8706 163.888 3.8706 163.641 3.94228L164.016 3.54407L164.279 2.97861L164.207 2.71579L163.474 1.49727L163.123 1.22649L162.709 1.2902L161.481 2.01494L161.226 2.38129L161.25 2.85118L161.402 3.37682C161.226 3.20161 160.995 3.08214 160.708 3.01046C159.943 2.81932 159.154 3.26532 158.97 4.00599C158.787 4.74666 159.265 5.50326 160.038 5.70236C160.389 5.78997 160.756 5.74218 161.075 5.57493L161.115 5.59883C160.804 6.74567 159.712 7.57395 158.492 7.57395C157.089 7.57395 155.918 6.49878 155.806 5.12894L155.854 5.11301C156.149 5.37583 156.515 5.51919 156.906 5.51919C157.767 5.51919 158.468 4.85019 158.468 4.02192C158.468 3.19364 157.767 2.52465 156.906 2.52465C156.579 2.52465 156.3 2.59633 156.069 2.73968L156.372 2.20608C156.531 1.91937 156.587 1.52116 156.348 1.28223L155.264 0.207069L154.834 0L154.419 0.191141L153.319 1.27427C153.072 1.5132 153.128 1.91141 153.295 2.19812L153.598 2.73172C153.359 2.58836 153.088 2.51668 152.761 2.51668C151.9 2.51668 151.199 3.18568 151.199 4.01395C151.199 4.84223 151.9 5.51122 152.761 5.51122C153.152 5.51122 153.518 5.36787 153.813 5.10505L153.861 5.12098C153.75 6.49878 152.578 7.56598 151.175 7.56598C149.963 7.56598 148.863 6.73771 148.553 5.59086L148.592 5.56697C148.911 5.73422 149.286 5.77404 149.637 5.6944C150.41 5.50326 150.888 4.73869 150.705 3.99802C150.521 3.25735 149.74 2.81136 148.967 3.0025C148.68 3.06621 148.457 3.18568 148.282 3.36089L148.433 2.81932L148.449 2.36537L148.226 2.01494L146.998 1.27427L146.56 1.20259L146.225 1.45745L145.484 2.67597L145.412 2.95472L145.667 3.49628L146.058 3.91042C145.819 3.83874 145.564 3.83874 145.277 3.91042C144.894 4.00599 144.567 4.23695 144.368 4.57941C144.177 4.89001 144.121 5.25637 144.209 5.60679C144.296 5.95722 144.519 6.25189 144.83 6.44303C145.165 6.64214 145.564 6.69789 145.946 6.60231C146.297 6.51471 146.608 6.29967 146.815 5.99704H146.863C146.943 6.23596 146.982 6.49878 146.982 6.7616C146.982 8.06773 145.986 9.12696 144.766 9.12696C143.778 9.12696 142.909 8.42611 142.646 7.43059L142.678 7.35095C142.909 7.38281 143.14 7.35095 143.348 7.26334C143.674 7.12795 143.922 6.8731 144.049 6.56249C144.169 6.25985 144.169 5.93332 144.049 5.64661C143.786 5.03337 143.045 4.74666 142.399 5.01744C142.176 5.11301 142.009 5.23247 141.873 5.39972L141.921 4.96169C141.953 4.66702 141.833 4.39623 141.61 4.26881L140.654 3.75113L140.351 3.69539L140.271 3.74317L140.199 3.82281L140.271 4.22102L141.004 5.94129L140.933 6.06871V6.08464C140.861 6.4271 140.877 6.72974 140.996 7.00052C141.108 7.25538 141.307 7.47041 141.586 7.64562L141.746 7.68545L141.937 8.1394L142.654 9.34996L142.957 10.019L142.933 10.4411V10.457L143.101 10.8632V10.8871L143.499 11.0782H143.531H143.555C147.094 9.66853 150.904 8.95971 154.865 8.95175C158.819 8.95175 162.629 9.66853 166.176 11.0782L166.2 11.0941L166.622 10.8871L166.798 10.4809V10.0827L167.985 7.70137L168.113 7.67748L168.145 7.66155C168.432 7.48634 168.623 7.27131 168.735 7.01645C168.854 6.75363 168.878 6.45896 168.806 6.10853L168.727 5.96518L169.468 4.22899L169.54 3.8467H169.524Z" fill="#222333"/>
<path d="M72.8535 32.6279L80.832 11.2998H85.9248V11.5791C84.1718 11.5792 83.725 12.1841 83.8604 13.3066L86.7305 36.3877C86.8423 37.2635 87.6395 37.877 89.1855 37.877V38.1631H81.6611V37.8848C82.6411 37.8847 82.8242 37.4944 82.7686 37.0088L80.9033 16.4766L72.04 39.1982L61.75 15.3857L58.96 37.0957C58.8882 37.6612 59.1754 37.829 60.0283 37.8848V38.1631H54.8711V37.877C56.2657 37.8769 56.9828 37.6058 57.1025 36.6982L60.0518 13.7051C60.2111 12.4549 59.247 11.5871 57.4141 11.5869V11.2998H64.2129L72.8535 32.6279ZM40.0537 10.9258C47.8329 10.926 54.1454 17.1698 54.1455 24.8789C54.1455 32.5881 47.841 38.8396 40.0537 38.8398C32.2662 38.8398 25.9609 32.5882 25.9609 24.8789C25.961 17.1696 32.2743 10.9258 40.0537 10.9258ZM9.58887 11.2998C13.893 11.2998 18.3406 13.0202 18.3408 17.2012C18.3408 21.7169 14.8413 23.907 12.2109 24.4326C14.4427 27.3633 19.4244 32.9146 23.0352 35.9092C24.7329 37.3188 26.5906 37.7335 28.2246 37.4707L28.3604 37.6855C28.3604 37.6855 26.2559 38.832 24.4307 38.832C22.6054 38.832 21.5294 38.6569 20.0947 37.5898C17.5614 35.7093 8.89591 25.8995 8.83203 25.8271L8.82324 25.835L5.69141 25.8662V36.499C5.69138 37.2714 5.58762 37.8681 6.50391 37.8682V38.1631H0V37.8682C1.67386 37.8443 2.2793 37.4541 2.2793 36.2754V13.3711C2.2793 12.3517 1.88871 11.5947 0.214844 11.5947V11.2998H9.58887ZM105.836 11.0527L115.672 35.1846C116.493 37.1914 117.489 37.8289 118.868 37.8848V38.1797H111.711V37.8926C112.444 37.8845 112.683 37.3748 112.437 36.7617L108.634 27.9131V27.9209L99.252 27.9375L95.418 37.2715C95.2589 37.6615 95.7055 37.8925 96.542 37.8926V38.1875H90.6602V37.8926C91.768 37.8925 92.9952 37.5658 93.6328 35.9414L103.469 11.0527H105.836ZM81.6611 38.1709L81.6523 38.1631H81.6611V38.1709ZM49.459 21.0244C46.9083 14.9159 41.5675 11.2361 35.4141 13.7607C29.4452 16.2065 28.1893 22.2401 30.4355 28.1611L30.6553 28.7334C33.2059 34.8339 38.5467 38.5216 44.708 35.9971C50.8694 33.4724 52.0096 27.125 49.459 21.0244ZM99.707 26.3125H108.147L103.884 15.959L99.707 26.3125ZM5.69922 24.0742H9.02246C11.3499 24.0742 14.539 22.8482 14.5391 17.8945C14.5391 14.4301 11.4858 12.957 8.46484 12.957H5.69922V24.0742Z" fill="#222333"/>
</svg>
