<svg width="113" height="41" viewBox="0 0 113 41" fill="none" xmlns="http://www.w3.org/2000/svg">
<path d="M9.8813 4.30541H0.323946V0.335693H15.3752C15.3752 1.1431 15.3329 1.9305 15.3869 2.71125C15.4429 3.52235 15.2113 4.18872 14.7724 4.87364C11.8024 9.50811 8.87053 14.167 5.92521 18.8172C5.77955 19.0472 5.62351 19.2706 5.46127 19.5136H15.1926C15.3663 19.1444 15.513 18.7993 15.6867 18.4684C17.1597 15.6623 19.5239 14.1035 22.6037 13.5761C24.4849 13.254 26.3596 13.292 28.1922 13.8737C31.0588 14.7835 32.7868 16.7985 33.665 19.6102C34.2141 21.3679 34.2877 23.1805 34.2535 25.0034C34.2529 25.0341 34.2338 25.0644 34.2138 25.1227H19.101C19.1247 25.569 19.1335 25.9848 19.1709 26.398C19.3965 28.8888 20.0736 31.2306 21.5609 33.2772C23.2903 35.657 25.6544 36.8223 28.5903 36.8592C29.9305 36.876 31.236 36.6858 32.5504 36.2836V29.0916H33.6123C33.624 29.3401 33.6357 29.5879 33.6504 29.8992C33.7352 29.8006 33.789 29.7443 33.8358 29.6827C34.6729 28.5798 36.3391 28.6924 36.908 29.9503C37.532 31.3302 37.4942 32.7601 36.8309 34.1286C36.2675 35.2909 34.5198 35.4855 33.6669 34.2067V39.8161C33.1116 39.9426 32.5675 40.0712 32.0212 40.19C29.6963 40.6953 27.3495 40.8511 24.9849 40.5678C19.9039 39.9589 16.5852 37.2108 15.062 32.3198C14.3325 29.9774 14.1455 27.5653 14.1984 25.1272C14.2087 24.6526 14.2403 24.1785 14.2642 23.6577H0.0336951C0.0336951 23.0286 0.0831435 22.4395 0.0233008 21.8618C-0.0976014 20.6946 0.263932 19.7235 0.887007 18.733C3.4578 14.6462 5.95237 10.5116 8.48501 6.40071C8.91907 5.69618 9.40209 5.02182 9.8813 4.30541ZM29.3153 21.817C29.3055 20.8577 29.0605 20.0076 28.572 19.2328C27.7631 17.95 26.5474 17.36 25.0763 17.2413C22.5333 17.036 20.394 18.2315 19.5427 20.7416C19.4288 21.0775 19.3843 21.437 19.3007 21.817H29.3153ZM36.1444 31.982C36.0522 31.5028 35.9896 30.9972 35.8513 30.5133C35.7302 30.0894 35.413 29.8163 34.9506 29.7982C34.5164 29.7811 34.2047 30.0233 34.024 30.3916C33.5123 31.4341 33.4996 32.5051 33.9525 33.5673C34.1411 34.0095 34.504 34.2486 35.0119 34.2102C35.4921 34.1739 35.7578 33.8625 35.872 33.4494C36.0004 32.9846 36.0522 32.4987 36.1444 31.982Z" fill="#222333"/>
<path d="M66.3898 9.81786C65.3537 9.69583 64.3782 9.58095 63.3855 9.46404V6.72851C65.7539 6.46235 68.1114 6.34748 70.5352 6.42401C70.4708 7.44953 70.41 8.41745 70.345 9.4523C70.4219 9.34384 70.4715 9.28353 70.5107 9.21709C71.6361 7.31066 73.3041 6.27992 75.5093 6.10574C76.3128 6.04227 77.1036 6.10299 77.8702 6.35081C79.2554 6.79867 80.1464 7.75175 80.6258 9.1099C80.6624 9.21344 80.6949 9.31839 80.7493 9.48324C80.83 9.35128 80.885 9.26294 80.9385 9.17372C82.0692 7.28797 83.7256 6.25155 85.9236 6.10228C86.9754 6.03085 88.004 6.14296 88.9678 6.60181C90.2715 7.22252 90.9629 8.32316 91.2642 9.68234C91.3974 10.2833 91.4766 10.909 91.4796 11.5239C91.4984 15.4596 91.4892 19.3954 91.4886 23.3312C91.4886 23.4192 91.4811 23.5072 91.4759 23.621H87.0941V23.178C87.094 19.7522 87.098 16.3264 87.0894 12.9007C87.0882 12.4377 87.0472 11.9717 86.9842 11.5126C86.7609 9.8848 85.5191 9.54937 84.3427 9.86866C83.4313 10.116 82.7688 10.7114 82.2435 11.4649C81.4174 12.6501 81.0921 13.9881 81.0922 15.4177C81.0924 18.012 81.0923 20.6062 81.0923 23.2005C81.0923 23.3311 81.0923 23.4617 81.0923 23.6196H76.7394V23.2369C76.7394 19.6559 76.7436 16.0749 76.7335 12.494C76.7324 12.0875 76.6858 11.6738 76.5998 11.2765C76.3571 10.1559 75.4835 9.5943 74.3481 9.78747C73.2969 9.96631 72.5354 10.5757 71.9387 11.4169C71.1166 12.5758 70.7642 13.8917 70.7545 15.2937C70.7361 17.9211 70.7492 20.5487 70.7492 23.1763V23.6241H66.3898V9.81786Z" fill="#222333"/>
<path d="M109.555 20.277C110.56 20.3961 111.544 20.5128 112.542 20.6312V23.3509C110.214 23.6531 107.877 23.7206 105.455 23.661C105.5 22.7226 105.545 21.7971 105.591 20.8453C105.337 21.2141 105.126 21.5771 104.861 21.8942C103.827 23.1297 102.469 23.7538 100.889 23.9333C99.816 24.0551 98.7623 23.9735 97.759 23.556C96.1654 22.8929 95.372 21.6447 95.2332 19.9603C95.0066 17.2096 96.5264 15.3533 98.8823 14.2991C100.324 13.6538 101.851 13.3612 103.415 13.241C103.976 13.1979 104.537 13.1793 105.126 13.1481C105.148 12.4198 105.198 11.6996 104.941 11.0102C104.576 10.0315 103.757 9.68191 102.811 9.56217C100.827 9.311 98.9668 9.77621 97.1733 10.5893C97.0239 10.657 96.878 10.7324 96.6939 10.8221C96.5668 9.59118 96.4433 8.39499 96.3135 7.13836C96.8368 6.9811 97.3559 6.80723 97.8845 6.66971C99.3692 6.28339 100.884 6.0799 102.416 6.07813C103.711 6.07663 105.003 6.17174 106.249 6.59255C108.163 7.23904 109.187 8.59939 109.44 10.5677C109.509 11.104 109.528 11.6495 109.53 12.1909C109.539 14.7291 109.534 17.2674 109.535 19.8056C109.535 19.9465 109.547 20.0874 109.555 20.277ZM105.101 16.0097C103.535 16.0706 101.982 16.0814 100.569 16.854C100.331 16.9844 100.11 17.1702 99.9248 17.3704C99.1027 18.2573 99.1497 20.1487 100.789 20.5123C101.247 20.6139 101.768 20.6003 102.228 20.4975C104.23 20.0502 105.303 17.8093 105.101 16.0097Z" fill="#222333"/>
<path d="M61.3902 15.756H50.6813C50.769 16.3902 50.8013 16.997 50.9428 17.5771C51.3484 19.2396 52.4774 20.1532 54.1252 20.4158C56.2138 20.7487 58.2222 20.3719 60.1714 19.6063C60.2626 19.5704 60.3528 19.5319 60.4861 19.4772C60.6247 20.6199 60.7601 21.7353 60.9048 22.9283C60.0837 23.1533 59.2844 23.4079 58.4687 23.5884C56.8049 23.9565 55.1166 24.0772 53.4178 23.9204C51.6648 23.7586 50.0252 23.2806 48.6786 22.07C47.5399 21.0463 46.8892 19.7412 46.5811 18.2672C46.0444 15.7 46.0649 13.1509 47.118 10.7051C48.3675 7.80294 50.623 6.29322 53.7695 6.10169C54.8392 6.03657 55.8926 6.13178 56.9181 6.45256C58.6883 7.00632 59.9634 8.13505 60.7358 9.81624C61.6031 11.7041 61.6176 13.6911 61.3902 15.756ZM57.1489 12.7478C57.1364 12.4894 57.1308 12.2513 57.1124 12.0141C57.0113 10.711 56.1961 9.70947 55.0034 9.41802C53.2251 8.98352 51.616 9.90684 51.0367 11.7065C50.931 12.0349 50.8738 12.379 50.7866 12.7478H57.1489Z" fill="#222333"/>
<path d="M39.6665 6.45133H43.8248V9.87937H39.6664V10.2735C39.6664 12.7346 39.6558 15.1958 39.6753 17.6568C39.6792 18.1495 39.751 18.6533 39.874 19.1307C40.0526 19.824 40.5324 20.2157 41.2488 20.217C42.007 20.2184 42.7656 20.1222 43.5238 20.0655C43.6206 20.0583 43.7161 20.0328 43.8334 20.012V23.5527C43.3428 23.6434 42.84 23.7529 42.3319 23.8271C41.0546 24.0137 39.7723 24.064 38.4938 23.8499C36.6792 23.5461 35.6785 22.487 35.4354 20.5962C35.3509 19.939 35.3043 19.2727 35.3008 18.6103C35.2863 15.8388 35.2947 13.0672 35.2947 10.2956C35.2947 10.1752 35.2947 10.0547 35.2947 9.89006H32.3416V6.47089H35.2545V1.1707C36.7362 0.777586 38.1847 0.393292 39.6665 0.000152588V6.45133Z" fill="#222333"/>
<path d="M26.9548 9.4196H22.4032C20.8804 6.39148 19.3562 3.36076 17.8136 0.293213H24.4422C25.2743 3.31579 26.1103 6.35214 26.9548 9.4196Z" fill="#222333"/>
<path d="M52.2094 29.7423C52.2224 29.5299 52.2355 29.3175 52.2494 29.0911H53.302C53.3103 29.2054 53.3259 29.3212 53.326 29.4369C53.3275 31.3648 53.3318 33.2927 53.3254 35.2205C53.3206 36.6933 52.544 37.4979 51.0671 37.5663C50.3263 37.6006 49.5876 37.5879 48.8539 37.3685V36.3085C49.1535 36.4138 49.4247 36.5622 49.7098 36.5972C50.1857 36.6556 50.6777 36.7004 51.1495 36.6421C51.6874 36.5756 52.0591 36.2092 52.1443 35.6629C52.2233 35.1567 52.2222 34.638 52.2564 34.1248C52.2103 34.1 52.1642 34.0752 52.1181 34.0503C52.1022 34.1016 52.0989 34.1624 52.0685 34.2029C51.228 35.3252 49.5155 35.1992 48.9499 33.923C48.3613 32.5951 48.3774 31.2146 49.0322 29.9084C49.637 28.7019 51.2314 28.5983 52.0735 29.6622C52.1001 29.696 52.1104 29.7427 52.1283 29.7833C52.1553 29.7697 52.1824 29.756 52.2094 29.7423ZM49.717 31.946C49.8214 32.4406 49.8928 32.9327 50.0351 33.4035C50.1447 33.7659 50.4005 34.0315 50.8183 34.0737C51.2519 34.1175 51.5887 33.9398 51.7898 33.5736C52.3658 32.5248 52.397 31.4457 51.8673 30.3704C51.6772 29.9846 51.3293 29.7784 50.8927 29.8011C50.4579 29.8237 50.1648 30.0927 50.0449 30.4875C49.902 30.9583 49.8255 31.4492 49.717 31.946Z" fill="#222333"/>
<path d="M74.1407 32.015C74.0479 32.5009 74.0022 33.0018 73.8531 33.4697C73.4569 34.7132 72.4738 35.1433 71.3637 35.0752C69.9111 34.9861 69.0872 34.1906 68.96 32.7402C68.9029 32.0894 68.9157 31.4036 69.0587 30.7701C69.361 29.4307 70.5027 28.752 71.9154 28.9623C73.1796 29.1506 73.9239 29.9896 74.051 31.3743C74.0702 31.5834 74.0752 31.7938 74.0867 32.0036C74.1047 32.0074 74.1227 32.0112 74.1407 32.015ZM70.0886 31.8503C70.135 32.3198 70.1602 32.6395 70.2012 32.9571C70.218 33.0873 70.2614 33.2159 70.3059 33.3405C70.5122 33.9182 70.8926 34.2035 71.464 34.2161C72.0365 34.2289 72.4609 33.9675 72.6529 33.39C72.962 32.4604 72.9613 31.5126 72.6345 30.5859C72.4473 30.0548 72.0169 29.7878 71.4841 29.7919C70.9519 29.7961 70.5115 30.0683 70.3439 30.5976C70.2023 31.0451 70.1526 31.5217 70.0886 31.8503Z" fill="#222333"/>
<path d="M42.3739 31.9878C42.4165 31.6369 42.4316 31.28 42.5064 30.9361C42.8691 29.268 44.1077 28.8071 45.4473 28.9734C46.467 29.1 47.1182 29.6869 47.3988 30.6693C47.6636 31.5968 47.6644 32.5321 47.3666 33.4517C47.0061 34.5646 46.0154 35.1676 44.846 35.0901C43.1193 34.9756 42.5313 33.7975 42.4153 32.4896C42.4007 32.3247 42.4133 32.1574 42.4133 31.9912C42.4002 31.9901 42.387 31.9889 42.3739 31.9878ZM46.4124 32.0098C46.3236 31.5366 46.2776 31.0708 46.1434 30.632C45.9742 30.0784 45.5357 29.7942 44.9944 29.7939C44.4474 29.7936 44.0181 30.0702 43.8316 30.619C43.5197 31.5369 43.5262 32.4731 43.8251 33.3917C44.0074 33.9517 44.4186 34.2151 44.9803 34.2212C45.5403 34.2273 45.9571 33.97 46.1363 33.4026C46.2776 32.9554 46.3234 32.478 46.4124 32.0098Z" fill="#222333"/>
<path d="M111.658 31.601C111.658 31.1897 111.692 30.8242 111.649 30.4679C111.603 30.0782 111.276 29.8356 110.851 29.7951C110.436 29.7555 110.05 29.9696 109.908 30.3258C109.864 30.4364 109.839 30.5547 109.802 30.6838H108.714C108.616 30.145 108.894 29.5527 109.425 29.2693C110.197 28.8572 111.017 28.8153 111.833 29.1163C112.453 29.3451 112.745 29.8696 112.758 30.4932C112.789 31.9644 112.768 33.4366 112.768 34.9336H111.698C111.687 34.7459 111.674 34.5532 111.66 34.3273C111.61 34.3592 111.572 34.3719 111.551 34.3984C111.027 35.0686 110.329 35.1943 109.553 35.0057C108.926 34.8532 108.575 34.4143 108.489 33.7871C108.394 33.0963 108.604 32.5158 109.214 32.1258C109.792 31.7567 110.446 31.6526 111.112 31.603C111.285 31.5901 111.46 31.601 111.658 31.601ZM111.629 32.2748C111.289 32.3321 110.933 32.3457 110.612 32.4607C110.344 32.5569 110.079 32.7348 109.883 32.9429C109.609 33.2345 109.645 33.7354 109.893 34.0093C110.12 34.2601 110.487 34.2839 110.866 34.0722C111.431 33.7566 111.755 33.0376 111.629 32.2748Z" fill="#222333"/>
<path d="M101.752 29.0903H102.829V34.9343H101.755V33.798C101.736 33.7953 101.716 33.7926 101.696 33.7899C101.617 33.9296 101.543 34.0734 101.456 34.2085C101.053 34.8326 100.469 35.1302 99.7381 35.0755C98.835 35.0078 98.3203 34.4213 98.2968 33.4048C98.2671 32.1194 98.2855 30.833 98.2833 29.5471C98.283 29.4044 98.2832 29.2617 98.2832 29.0956H99.3891C99.3891 29.2226 99.3891 29.3413 99.3891 29.46C99.3891 30.5465 99.3856 31.633 99.392 32.7194C99.3933 32.9504 99.4065 33.1866 99.4568 33.4109C99.5564 33.8549 99.8762 34.0454 100.326 33.9658C100.725 33.8951 101.003 33.6526 101.223 33.3323C101.614 32.7635 101.751 32.1214 101.752 31.4429C101.753 30.6682 101.752 29.8936 101.752 29.0903Z" fill="#222333"/>
<path d="M84.3576 29.0903H85.4309C85.4309 29.2179 85.4306 29.3358 85.4309 29.4536C85.434 30.5841 85.4363 31.7145 85.4415 32.8449C85.4421 32.9663 85.4529 33.0886 85.4713 33.2086C85.5848 33.9514 86.2053 34.2287 86.827 33.7848C87.5369 33.278 87.7586 32.5139 87.788 31.6908C87.8145 30.9492 87.7939 30.2058 87.7941 29.4633C87.7941 29.3445 87.7941 29.2256 87.7941 29.0906H88.8745V34.9412H87.798V33.8585L87.7248 33.8442C87.679 33.9255 87.6334 34.0069 87.5873 34.0881C87.1375 34.8798 86.3594 35.2359 85.4775 35.0331C84.8982 34.8999 84.5759 34.4986 84.4393 33.94C84.3871 33.7263 84.3406 33.5046 84.3391 33.2862C84.33 31.9673 84.3344 30.6484 84.3357 29.3295C84.3358 29.2546 84.349 29.1797 84.3576 29.0903Z" fill="#222333"/>
<path d="M59.219 31.5761H55.839C55.8807 32.4556 56.0796 33.2307 56.7585 33.7943C57.4584 34.3753 58.2628 34.2568 59.0801 34.0431V34.8781C58.2667 35.1036 57.4577 35.176 56.6487 34.9504C55.7381 34.6964 55.1806 34.0683 54.9244 33.176C54.6849 32.3422 54.6547 31.4933 54.8571 30.6465C55.2036 29.1971 56.9059 28.4597 58.216 29.1871C58.8684 29.5493 59.1339 30.1527 59.215 30.8556C59.2411 31.0821 59.219 31.3142 59.219 31.5761ZM58.1005 30.8169C58.1226 30.217 57.704 29.8043 57.0829 29.7907C56.458 29.777 55.9395 30.2337 55.9326 30.8169H58.1005Z" fill="#222333"/>
<path d="M83.2678 30.9658H82.0714C82.0496 30.8503 82.0253 30.7441 82.0102 30.6367C81.9553 30.2463 81.7965 29.9369 81.3803 29.833C80.9438 29.7239 80.5944 29.8765 80.323 30.2159C80.0324 30.5793 79.9488 31.0177 79.9452 31.4648C79.9426 31.7833 79.9679 32.1091 80.0346 32.42C80.2979 33.6463 81.1503 34.282 82.4087 34.2131C82.6508 34.1999 82.8922 34.1732 83.1656 34.15V34.8763C82.1941 35.1146 81.2256 35.2367 80.2744 34.8194C79.6079 34.527 79.1956 33.9831 78.9575 33.3093C78.686 32.5412 78.6353 31.7491 78.7908 30.9521C79.1132 29.3007 80.6376 28.4868 82.2071 29.1157C82.9341 29.4071 83.3797 30.1761 83.2678 30.9658Z" fill="#222333"/>
<path d="M62.2248 27.0006V29.0747H63.8151V29.9266H62.213V30.9875C62.213 31.6636 62.2123 32.3397 62.2132 33.0159C62.2147 34.0058 62.5238 34.2868 63.5075 34.1947C63.5733 34.1885 63.639 34.1817 63.7242 34.1733V34.9965C63.0572 35.1184 62.3907 35.1689 61.7507 34.8709C61.2693 34.6468 61.1196 34.2141 61.1179 33.718C61.1142 32.5875 61.1168 31.4569 61.1167 30.3263V29.9325H60.0747V29.083H61.1001V27.7032C61.4681 27.4733 61.8121 27.2584 62.2248 27.0006Z" fill="#222333"/>
<path d="M65.448 29.9288H64.4495V29.0877H65.4542V27.6951C65.8137 27.4707 66.1482 27.2619 66.5327 27.0218V29.0543H68.1634V29.9218H66.5465V30.3898C66.5465 31.2539 66.5435 32.1181 66.5489 32.9822C66.5501 33.1692 66.5672 33.3588 66.602 33.5424C66.6817 33.9628 66.9219 34.1763 67.3508 34.206C67.5798 34.2219 67.8107 34.2088 68.0588 34.2088V35.0003C67.4188 35.1111 66.7967 35.1545 66.1884 34.9138C65.6513 34.7013 65.4665 34.2664 65.467 33.7224C65.468 32.6034 65.4679 31.4845 65.4665 30.3655C65.4664 30.2351 65.4558 30.1047 65.448 29.9288Z" fill="#222333"/>
<path d="M94.4514 29.9281H93.4568V29.0805H94.4556V27.7033C94.8204 27.4776 95.1556 27.2703 95.5641 27.0176V29.0754H97.189V29.9207H95.6281C95.604 29.9949 95.5789 30.0361 95.579 30.0771C95.583 31.1631 95.5656 32.25 95.6045 33.3348C95.6284 34.0016 95.954 34.2426 96.6304 34.2085C96.7723 34.2014 96.914 34.1904 97.0789 34.1797V34.9961C96.4225 35.1154 95.7875 35.1482 95.1725 34.8955C94.7282 34.7128 94.5039 34.3496 94.4967 33.8778C94.4791 32.714 94.4801 31.55 94.4719 30.3861C94.4709 30.245 94.4595 30.104 94.4514 29.9281Z" fill="#222333"/>
<path d="M91.9992 34.9403H90.9424V26.4484H91.9992V34.9403Z" fill="#222333"/>
<path d="M39.8014 34.9453H38.7253V29.0913H39.7833V30.1036L39.8515 30.1542C40.2179 29.4211 40.756 28.9551 41.62 28.9459V30.0916C41.5968 30.1066 41.5878 30.1173 41.5782 30.118C40.131 30.2198 39.8284 31.292 39.8045 32.3632C39.7883 33.0939 39.8014 33.8252 39.8014 34.5563C39.8014 34.6758 39.8014 34.7953 39.8014 34.9453Z" fill="#222333"/>
<path d="M105.855 34.9384H104.746V29.1011H105.833V30.114C106.257 29.4252 106.791 28.9606 107.655 28.9459V30.1042C107.606 30.1199 107.575 30.137 107.544 30.1389C106.366 30.2127 105.905 31.0427 105.863 32.1066C105.826 33.034 105.855 33.9641 105.855 34.9384Z" fill="#222333"/>
</svg>
