<svg width="29" height="23" viewBox="0 0 29 23" fill="none" xmlns="http://www.w3.org/2000/svg">
<path d="M2 22.9984V0H9.64453C13.3156 0 16.1338 1.00416 18.0989 3.01247C20.0856 4.99918 21.0789 7.83889 21.0789 11.5316C21.0789 15.2027 20.1072 18.0316 18.1637 20.0183C16.2201 22.005 13.4452 22.9984 9.83889 22.9984H2ZM6.21097 19.3381H9.64453C12.0415 19.3381 13.8231 18.6902 14.9892 17.3946C16.1553 16.0989 16.7384 14.1445 16.7384 11.5316C16.7384 8.87543 16.1553 6.89952 14.9892 5.60383C13.8231 4.30815 12.0415 3.66031 9.64453 3.66031H6.21097V19.3381Z" fill="#222333"/>
<circle cx="24.2877" cy="20.7899" r="2.20855" fill="#222333"/>
</svg>
