<svg width="65" height="36" viewBox="0 0 65 36" fill="none" xmlns="http://www.w3.org/2000/svg">
<path d="M54.8831 22.2362V13.4349L49.282 15.0631C47.3265 8.99632 38.5222 7.97924 35.7216 13.9657L34.5713 16.4861L29.97 6.84617C34.5934 -0.014666 46.2779 -1.1745 52.4719 4.09827L54.7062 6.60975V0.3199H64.152V35.5341H55.2415V29.6056L49.72 33.2903C44.9462 35.8241 39.6194 37.091 34.6288 34.3074C27.3641 30.2569 25.1122 17.8913 20.7056 11.1554C20.3826 10.6647 20.1216 10.2587 19.5951 10.8208L9.53432 35.7125H0L12.7994 4.1518C14.9629 -0.831008 23.6124 -1.49568 26.4085 3.0678C29.9479 8.84911 32.2707 16.6021 35.7835 22.544C38.5045 26.425 43.8667 27.2904 47.4017 23.9492C48.2689 23.1284 48.7024 22.0667 49.4767 21.1835L54.8831 22.2407V22.2362Z" fill="#222333"/>
</svg>
